<svg width="28" height="28" viewBox="0 0 28 28" fill="none" xmlns="http://www.w3.org/2000/svg">
<path d="M16.7894 21.0175C17.2897 22.8846 16.1817 24.8038 14.3145 25.3041C12.4474 25.8044 10.5282 24.6964 10.0279 22.8292M12.7067 6.6979C13.0616 6.05938 13.1785 5.28763 12.9745 4.52627C12.5576 2.97033 10.9583 2.04696 9.40235 2.46388C7.84641 2.88079 6.92304 4.48011 7.33996 6.03605C7.54396 6.79741 8.03109 7.40731 8.6577 7.78283M18.9418 11.0197C18.5254 9.46559 17.4136 8.16597 15.8512 7.40678C14.2887 6.64759 12.4034 6.49103 10.6102 6.97153C8.81692 7.45203 7.26254 8.53024 6.28898 9.96896C5.31542 11.4077 5.00243 13.0891 5.41886 14.6432C6.10787 17.2146 5.97408 19.266 5.53896 20.8249C5.04305 22.6015 4.7951 23.4899 4.86209 23.6683C4.93873 23.8723 4.99416 23.9284 5.19744 24.0071C5.37511 24.0759 6.12151 23.876 7.61431 23.476L21.4569 19.7669C22.9497 19.3669 23.6961 19.1669 23.8155 19.0184C23.9522 18.8486 23.9722 18.7723 23.9365 18.5573C23.9054 18.3693 23.2465 17.724 21.9287 16.4333C20.7724 15.3008 19.6308 13.5911 18.9418 11.0197Z" stroke="#8A8A8A" stroke-width="1.5" stroke-linecap="round" stroke-linejoin="round"/>
</svg>
