<svg width="16" height="18" viewBox="0 0 16 18" fill="none" xmlns="http://www.w3.org/2000/svg">
<path d="M9.66665 8.1665H4.66665M6.33331 11.4998H4.66665M11.3333 4.83317H4.66665M14.6666 4.6665V13.3332C14.6666 14.7333 14.6666 15.4334 14.3942 15.9681C14.1545 16.4386 13.772 16.821 13.3016 17.0607C12.7668 17.3332 12.0668 17.3332 10.6666 17.3332H5.33331C3.93318 17.3332 3.23312 17.3332 2.69834 17.0607C2.22793 16.821 1.84548 16.4386 1.6058 15.9681C1.33331 15.4334 1.33331 14.7333 1.33331 13.3332V4.6665C1.33331 3.26637 1.33331 2.56631 1.6058 2.03153C1.84548 1.56112 2.22793 1.17867 2.69834 0.938988C3.23312 0.666504 3.93318 0.666504 5.33331 0.666504H10.6666C12.0668 0.666504 12.7668 0.666504 13.3016 0.938988C13.772 1.17867 14.1545 1.56112 14.3942 2.03153C14.6666 2.56631 14.6666 3.26637 14.6666 4.6665Z" stroke="#3E3E3E" stroke-linecap="round" stroke-linejoin="round"/>
</svg>
