<svg width="16" height="17" viewBox="0 0 16 17" fill="none" xmlns="http://www.w3.org/2000/svg">
<path d="M7.99998 15.1667C11.6819 15.1667 14.6666 12.1819 14.6666 8.50004C14.6666 4.81814 11.6819 1.83337 7.99998 1.83337C4.31808 1.83337 1.33331 4.81814 1.33331 8.50004C1.33331 12.1819 4.31808 15.1667 7.99998 15.1667Z" stroke="#666666" stroke-linecap="round" stroke-linejoin="round"/>
<path d="M6.06 6.50001C6.21673 6.05446 6.5261 5.67875 6.9333 5.43944C7.3405 5.20012 7.81926 5.11264 8.28478 5.19249C8.7503 5.27234 9.17254 5.51436 9.47672 5.8757C9.78089 6.23703 9.94737 6.69436 9.94666 7.16668C9.94666 8.50001 7.94666 9.16668 7.94666 9.16668" stroke="#666666" stroke-linecap="round" stroke-linejoin="round"/>
<path d="M8 11.8334H8.00667" stroke="#666666" stroke-linecap="round" stroke-linejoin="round"/>
</svg>
