<svg width="16" height="17" viewBox="0 0 16 17" fill="none" xmlns="http://www.w3.org/2000/svg">
<path d="M4.66667 13.1668H11.3333M7.18141 1.30345L1.52949 5.69939C1.15168 5.99324 0.962781 6.14017 0.826689 6.32417C0.706138 6.48716 0.616335 6.67077 0.561689 6.866C0.5 7.08639 0.5 7.3257 0.5 7.80433V13.8334C0.5 14.7669 0.5 15.2336 0.681656 15.5901C0.841445 15.9037 1.09641 16.1587 1.41002 16.3185C1.76654 16.5001 2.23325 16.5001 3.16667 16.5001H12.8333C13.7668 16.5001 14.2335 16.5001 14.59 16.3185C14.9036 16.1587 15.1586 15.9037 15.3183 15.5901C15.5 15.2336 15.5 14.7669 15.5 13.8334V7.80433C15.5 7.3257 15.5 7.08639 15.4383 6.866C15.3837 6.67077 15.2939 6.48716 15.1733 6.32417C15.0372 6.14017 14.8483 5.99324 14.4705 5.69939L8.81859 1.30345C8.52582 1.07574 8.37943 0.961888 8.21779 0.918123C8.07516 0.879506 7.92484 0.879506 7.78221 0.918123C7.62057 0.961888 7.47418 1.07574 7.18141 1.30345Z" stroke="#3E3E3E" stroke-linecap="round" stroke-linejoin="round"/>
</svg>
