<svg width="18" height="16" viewBox="0 0 18 16" fill="none" xmlns="http://www.w3.org/2000/svg">
<path d="M14 11.1974C15.2132 11.8069 16.2534 12.785 17.0127 14.008C17.163 14.2502 17.2382 14.3713 17.2642 14.539C17.317 14.8798 17.084 15.2988 16.7666 15.4336C16.6104 15.5 16.4347 15.5 16.0833 15.5M12.3333 7.6102C13.5681 6.99657 14.4167 5.72238 14.4167 4.25C14.4167 2.77762 13.5681 1.50343 12.3333 0.8898M10.6667 4.25C10.6667 6.32107 8.98772 8 6.91665 8C4.84559 8 3.16665 6.32107 3.16665 4.25C3.16665 2.17893 4.84559 0.5 6.91665 0.5C8.98772 0.5 10.6667 2.17893 10.6667 4.25ZM1.13268 13.782C2.46127 11.7871 4.5578 10.5 6.91665 10.5C9.27551 10.5 11.372 11.7871 12.7006 13.782C12.9917 14.219 13.1372 14.4375 13.1205 14.7166C13.1074 14.9339 12.9649 15.2 12.7913 15.3313C12.5683 15.5 12.2615 15.5 11.648 15.5H2.18528C1.5718 15.5 1.26505 15.5 1.04202 15.3313C0.86836 15.2 0.725893 14.9339 0.712847 14.7166C0.696093 14.4375 0.841621 14.219 1.13268 13.782Z" stroke="#3E3E3E" stroke-linecap="round" stroke-linejoin="round"/>
</svg>
